<svg width="128" height="128" viewBox="0 0 128 128" fill="none" xmlns="http://www.w3.org/2000/svg">
<path d="M58.6667 37.3333H69.3333V48H58.6667V37.3333ZM58.6667 58.6667H69.3333V90.6667H58.6667V58.6667ZM64 10.6667C34.56 10.6667 10.6667 34.56 10.6667 64C10.6667 93.44 34.56 117.333 64 117.333C93.44 117.333 117.333 93.44 117.333 64C117.333 34.56 93.44 10.6667 64 10.6667ZM64 106.667C40.48 106.667 21.3333 87.52 21.3333 64C21.3333 40.48 40.48 21.3333 64 21.3333C87.52 21.3333 106.667 40.48 106.667 64C106.667 87.52 87.52 106.667 64 106.667Z" fill="#001F3F"/>
</svg>
