<svg aria-hidden="true" role="img" width="32" height="32" viewBox="0 0 32 32" fill="none"
    xmlns="http://www.w3.org/2000/svg">
    <circle cx="16" cy="16" r="16" fill="#001F3F" />
    <path
        d="M24.1654 27.0236H21.9278C21.8791 27.0275 21.83 27.0295 21.7805 27.0295H10.6861C10.6366 27.0295 10.5875 27.0275 10.5389 27.0236H9.20217C9.1205 27.0235 9.03887 27.0234 8.95721 27.0234C8.57949 27.0234 8.20183 27.0251 7.82411 27.0294C7.61868 27.0324 7.41329 27.0354 7.20793 27.0367C7.64777 27.3656 8.15046 27.6736 8.71758 27.955L8.7031 27.9541C10.8938 28.0913 13.4931 28.16 16.0927 28.16C18.4376 28.16 20.7824 28.1041 22.8272 27.9924C23.2793 27.7167 23.7281 27.3957 24.1654 27.0236Z"
        fill="#B2B2D4" />
    <path
        d="M6.74786 26.6662C7.10674 26.6623 7.46528 26.6674 7.82422 26.6727C8.28363 26.6779 8.74289 26.6793 9.20229 26.6785H24.3612L25.0503 26.6782L24.5518 26.6784C24.4243 26.7982 24.2954 26.913 24.1656 27.0235H9.20229C8.74289 27.0227 8.28363 27.0241 7.82422 27.0293C7.61882 27.0323 7.41343 27.0353 7.20802 27.0366C7.04647 26.9157 6.89262 26.7923 6.74786 26.6662V26.6662Z"
        fill="#001F3F" />
    <path
        d="M21.7742 25.6224L21.8467 25.6138C23.8707 25.3765 25.2559 23.4827 24.8465 21.5133L24.0859 17.8579C23.7389 16.1899 22.2506 14.9926 20.5244 14.9926H16.0999H16.2251H11.8006C10.0744 14.9926 8.58608 16.1899 8.23905 17.8579L7.47868 21.5133C7.069 23.4827 8.4544 25.3765 10.4782 25.6138L10.5509 25.6224H21.7742Z"
        fill="#4D5A6A" />
    <path
        d="M11.8009 15.0199C10.0957 15.0199 8.60922 16.2157 8.26651 17.8633L7.50618 21.5187C7.3125 22.4498 7.52473 23.426 8.08868 24.1969C8.65249 24.9678 9.52476 25.4743 10.4818 25.5865L10.5543 25.595L21.7728 25.5948L21.8438 25.5865C22.8007 25.4743 23.6729 24.9678 24.2368 24.1969C24.8006 23.426 25.0132 22.4499 24.8194 21.5187L24.0589 17.8633C23.7162 16.2157 22.2297 15.0199 20.5246 15.0199H11.8009V15.0199ZM21.776 25.6497H10.5511L10.4752 25.641C9.50286 25.5269 8.61644 25.0124 8.0435 24.229C7.47056 23.4457 7.25486 22.4539 7.45164 21.5077L8.21201 17.8523C8.56007 16.1793 10.0695 14.965 11.8009 14.965H20.5246C22.2561 14.965 23.7654 16.1793 24.1134 17.8523L24.8737 21.5077C25.0705 22.4539 24.8549 23.4458 24.282 24.2291C23.709 25.0124 22.8227 25.527 21.8502 25.641L21.776 25.6497Z"
        fill="#000072" />
    <path
        d="M9.47138 25.143C9.18141 25.0068 8.91226 24.8293 8.67333 24.6162C8.49756 24.4073 8.34698 24.1783 8.22519 23.9342C8.57834 24.1415 8.97454 24.2898 9.40222 24.3637L9.47138 25.143V25.143ZM23.0004 25.0694L23.1616 23.2544C23.8572 22.4762 24.1921 21.3957 23.9619 20.2911L23.7842 19.4366L24.0361 18.5077L24.6689 21.5491C24.8542 22.4391 24.6513 23.372 24.1122 24.1087C23.8179 24.5111 23.4356 24.838 23.0004 25.0694V25.0694Z"
        fill="#083358" />
    <path
        d="M8.22553 23.9341C8.15244 23.8912 8.08103 23.8457 8.01175 23.7979C7.62586 23.119 7.49617 22.318 7.65614 21.5491L8.35132 18.2071L8.53407 18.8821L7.94119 21.7314C7.77926 22.5102 7.89783 23.2769 8.22553 23.9341V23.9341Z"
        fill="#AFB5BC" />
    <path
        d="M8.67421 24.6161C8.50402 24.4644 8.34928 24.2945 8.21327 24.1086C8.13997 24.0084 8.07291 23.9046 8.01228 23.7979C8.08157 23.8457 8.15298 23.8912 8.22607 23.9341C8.34786 24.1783 8.49844 24.4072 8.67421 24.6161V24.6161Z"
        fill="#A4A8BD" />
    <path
        d="M10.5614 25.4439H21.7633L21.8254 25.4367C22.7398 25.3295 23.5734 24.8454 24.1123 24.1088C24.6513 23.372 24.8542 22.4391 24.6689 21.5492L23.9085 17.8939C23.5802 16.3161 22.1571 15.171 20.5242 15.171H11.8005C10.1677 15.171 8.74445 16.3161 8.41621 17.8939L7.65584 21.5492C7.47065 22.4391 7.67351 23.372 8.21243 24.1087C8.75133 24.8454 9.58489 25.3295 10.4995 25.4367L10.5614 25.4439V25.4439ZM21.7741 25.801H10.5507C10.5436 25.801 10.5365 25.8005 10.5294 25.7996L10.4568 25.7912C9.44195 25.6722 8.51697 25.1351 7.91899 24.3176C7.32104 23.5001 7.09591 22.4649 7.30122 21.4774L8.06159 17.8221C8.4242 16.0792 9.99665 14.8141 11.8005 14.8141H20.5242C22.328 14.8141 23.9005 16.0792 24.2631 17.8221L25.0235 21.4774C25.2288 22.465 25.0037 23.5002 24.4056 24.3176C23.8077 25.1351 22.8827 25.6722 21.868 25.7912L21.7954 25.7996C21.7883 25.8005 21.7812 25.801 21.7741 25.801Z"
        fill="#001F3F" />
    <path
        d="M22.6064 12.2926C22.5955 12.3343 22.584 12.3765 22.5726 12.4175C22.5636 12.4491 22.5544 12.48 22.5454 12.511C22.5418 12.5229 22.5388 12.5342 22.5345 12.5461C22.5273 12.5717 22.5188 12.5972 22.5111 12.6223C22.5008 12.655 22.4899 12.6871 22.479 12.7192C22.4742 12.7335 22.4695 12.7478 22.4646 12.7615C22.4489 12.8079 22.4327 12.8536 22.4152 12.8988C22.3971 12.9489 22.3777 12.9982 22.3578 13.0471C22.3386 13.0965 22.318 13.1452 22.297 13.194C22.2764 13.2422 22.2547 13.291 22.2324 13.3386C22.2113 13.385 22.1895 13.4307 22.1673 13.4766C22.1643 13.4826 22.1612 13.4885 22.1582 13.4944C22.1377 13.5373 22.116 13.5795 22.0936 13.6218C22.0931 13.623 22.0925 13.624 22.0918 13.6253C22.0677 13.6724 22.043 13.7181 22.0176 13.7645C21.9875 13.8193 21.9567 13.8735 21.9248 13.927C21.9031 13.9644 21.8807 14.0013 21.8585 14.0382C21.8572 14.0394 21.8566 14.0405 21.8566 14.0412C21.8289 14.0864 21.8005 14.1311 21.7716 14.1756C21.7233 14.25 21.6738 14.3237 21.6226 14.3969C21.6003 14.4291 21.5774 14.4607 21.5545 14.4922C21.5351 14.5189 21.5158 14.5451 21.496 14.5719C21.4664 14.6117 21.4362 14.651 21.4061 14.6903C21.3765 14.7284 21.3469 14.7652 21.3168 14.8027C21.2999 14.8235 21.283 14.8443 21.2662 14.8646C21.2553 14.8777 21.2444 14.8908 21.2336 14.9038C21.213 14.9276 21.1931 14.9514 21.1726 14.9752C21.1171 15.0395 21.0604 15.1032 21.0026 15.1663C20.9747 15.1972 20.9458 15.2275 20.9169 15.2579C20.8958 15.2799 20.8747 15.3025 20.8536 15.3245C20.8234 15.3554 20.7939 15.3858 20.7631 15.4155C20.7197 15.459 20.675 15.5024 20.6304 15.5452C20.5942 15.5798 20.558 15.6137 20.5212 15.6469C20.5158 15.6523 20.5104 15.6577 20.5049 15.6618C20.4676 15.697 20.4295 15.7309 20.3909 15.7648C20.3204 15.8272 20.2486 15.8879 20.1757 15.948C20.1575 15.9629 20.1394 15.9777 20.1207 15.9932C20.0839 16.0229 20.0465 16.0527 20.0085 16.0825C19.877 16.1854 19.7425 16.2847 19.6051 16.3805C19.6026 16.3824 19.5996 16.3841 19.5972 16.3859C19.061 16.7584 18.4777 17.035 17.8722 17.2164C17.6623 17.2795 17.4493 17.3313 17.2346 17.3717C16.2834 17.5502 15.2979 17.5032 14.3648 17.2319C13.7375 17.0499 13.1338 16.766 12.5794 16.3805C12.536 16.3502 12.4926 16.3193 12.4491 16.2884C12.4449 16.2847 12.4407 16.2818 12.4359 16.2788C12.3931 16.2473 12.3503 16.2157 12.308 16.1842C12.264 16.1509 12.22 16.117 12.176 16.0825H12.1753C12.1319 16.0479 12.0891 16.0135 12.0463 15.9789C12.0028 15.9438 11.9606 15.9081 11.9184 15.8724C11.8762 15.8367 11.8346 15.8011 11.7936 15.7648C11.752 15.7279 11.7109 15.6916 11.6706 15.6541C11.6301 15.6172 11.5902 15.5798 11.5504 15.5416C11.5107 15.5042 11.4714 15.4661 11.4328 15.4274C11.3942 15.3888 11.3557 15.35 11.3176 15.3109C11.2797 15.2709 11.2417 15.2311 11.2036 15.1906C11.1675 15.1513 11.1319 15.1121 11.0963 15.0717C11.0686 15.0408 11.0408 15.0091 11.0136 14.9777C10.9346 14.8854 10.8574 14.7915 10.7827 14.6957C10.7524 14.6564 10.7217 14.6171 10.6928 14.5772C10.6886 14.5725 10.6849 14.5671 10.6814 14.5624C10.6608 14.5356 10.6409 14.5082 10.6216 14.4809C10.5769 14.419 10.5335 14.3571 10.4913 14.294C10.4678 14.2596 10.4442 14.2244 10.422 14.1893C10.3876 14.1363 10.3538 14.0835 10.3207 14.0293C10.2977 13.9912 10.2742 13.9526 10.2512 13.9138C10.2199 13.8597 10.1892 13.8045 10.1584 13.749C10.1361 13.7075 10.1138 13.6658 10.0921 13.6241C10.0697 13.5818 10.048 13.539 10.0274 13.4963C10.0239 13.4902 10.0209 13.4843 10.0184 13.4784C9.97261 13.3861 9.92977 13.2927 9.88996 13.1987C9.88753 13.1945 9.88573 13.191 9.8845 13.1869C9.86461 13.1404 9.84535 13.094 9.82667 13.0471C9.80677 12.9982 9.78743 12.9489 9.7694 12.8988C9.7506 12.8495 9.7326 12.7996 9.71566 12.7495C9.70298 12.7126 9.6903 12.6752 9.67829 12.6377C9.66861 12.608 9.65963 12.5782 9.65047 12.5484C9.64626 12.5354 9.64205 12.5216 9.63848 12.5086C9.62947 12.4794 9.621 12.4509 9.61312 12.4217C9.60111 12.3789 9.58963 12.3361 9.57819 12.2926C9.12704 9.15125 12.0227 5.66751 14.9162 4.1736C15.6519 3.79345 16.5326 3.79345 17.2684 4.1736C17.3335 4.20696 17.398 4.24264 17.4632 4.2795L17.4638 4.28015C20.2908 5.88289 23.0472 9.22213 22.6064 12.2926V12.2926Z"
        fill="#4D5A6A" />
    <path
        d="M22.2193 11.3709H22.2192C22.2364 11.619 22.2352 11.8669 22.2141 12.1133H22.2142C22.2067 12.2002 22.197 12.2871 22.1846 12.3741C22.1735 12.416 22.1622 12.458 22.1508 12.499C22.1417 12.5305 22.1326 12.5615 22.1235 12.5925C22.1199 12.6043 22.117 12.6157 22.1128 12.6275C22.1053 12.6532 22.0968 12.6786 22.089 12.7039C22.0789 12.7362 22.0679 12.7686 22.0571 12.8009C22.0523 12.8149 22.0474 12.8293 22.0425 12.8428C22.0269 12.8892 22.0107 12.935 21.9931 12.9805C21.9752 13.0303 21.956 13.0796 21.9359 13.1286C21.9167 13.1779 21.8962 13.2264 21.8751 13.2753C21.8546 13.3234 21.8328 13.3723 21.8104 13.42C21.7892 13.4662 21.7678 13.5121 21.7454 13.558C21.7424 13.5641 21.7392 13.5698 21.7363 13.5759C21.7268 13.5959 21.7171 13.6155 21.7071 13.6351H21.7072C21.6955 13.6579 21.6838 13.6806 21.6718 13.7033C21.6711 13.7044 21.6705 13.7057 21.6698 13.7068C21.6458 13.7538 21.621 13.7995 21.5957 13.8461C21.5654 13.9008 21.5349 13.9548 21.5027 14.0085C21.4812 14.046 21.4588 14.0828 21.4367 14.1197C21.4354 14.121 21.4347 14.1221 21.4347 14.1228C21.4068 14.168 21.3785 14.2126 21.3496 14.2571C21.3201 14.3028 21.29 14.3482 21.2593 14.3935H21.2593L21.2566 14.3974L21.2565 14.3975L21.2557 14.3988L21.2549 14.3999L21.2548 14.4001L21.2539 14.4014L21.2533 14.4022L21.2529 14.4028L21.252 14.4041L21.2517 14.4046L21.2511 14.4054L21.2502 14.4068L21.2501 14.407L21.2493 14.4081L21.2484 14.4094H21.2484C21.2326 14.4324 21.2167 14.4555 21.2005 14.4785C21.1785 14.5105 21.1555 14.5421 21.1326 14.5737C21.1131 14.6004 21.0939 14.6266 21.074 14.6533C21.0445 14.6932 21.0144 14.7324 20.9842 14.7718L20.9794 14.778L20.9791 14.7783L20.9788 14.7786L20.9786 14.779L20.9783 14.7793L20.9781 14.7796L20.978 14.7797L20.9778 14.78L20.9775 14.7804L20.9772 14.7807L20.9769 14.781L20.9767 14.7813L20.9767 14.7814L20.9764 14.7817L20.9761 14.7821L20.9759 14.7824L20.9741 14.7847L20.974 14.7848L20.9737 14.7852C20.9476 14.8185 20.9215 14.8511 20.8948 14.8842C20.878 14.905 20.8612 14.9258 20.8443 14.9461C20.8333 14.9591 20.8224 14.9722 20.8117 14.9854C20.7912 15.0092 20.7711 15.033 20.7507 15.0567L20.7506 15.0568V15.057C20.6951 15.1212 20.6385 15.1846 20.5806 15.2479C20.553 15.2785 20.5238 15.3091 20.4951 15.3392C20.4737 15.3615 20.4529 15.3842 20.4318 15.4061C20.4015 15.4371 20.3719 15.4672 20.3412 15.4969L20.3014 15.5363H20.3015C20.2709 15.5666 20.2396 15.5968 20.2084 15.6267C20.1723 15.6612 20.1361 15.6951 20.0993 15.7285C20.0939 15.7337 20.0884 15.7392 20.0831 15.7433C20.0567 15.768 20.0301 15.7922 20.0032 15.8161V15.8164C19.9918 15.8264 19.9804 15.836 19.9691 15.8461C19.8985 15.909 19.8268 15.9693 19.7538 16.0295C19.7357 16.0444 19.7175 16.0592 19.6988 16.0745C19.6707 16.0973 19.6422 16.1204 19.6133 16.1431V16.1429L19.5867 16.1638C19.5374 16.2024 19.4878 16.2404 19.4377 16.278C19.3706 16.3236 19.3028 16.3675 19.2343 16.4097V16.4096C19.1119 16.4854 18.9871 16.5564 18.8606 16.6224V16.6224C18.6228 16.7466 18.3784 16.8535 18.1291 16.9435L18.1251 16.9449L18.1231 16.9456L18.1132 16.9492V16.9492C17.9915 16.9927 17.8686 17.0321 17.7448 17.0675C17.8694 17.0185 17.9924 16.9637 18.1132 16.9032V16.9031C18.2736 16.8227 18.4308 16.7321 18.5832 16.6312L18.6246 16.6035C18.7118 16.5446 18.7957 16.482 18.8765 16.416V16.4161C19.0041 16.3122 19.1235 16.1999 19.2343 16.0804V16.0803C19.3749 15.9289 19.5016 15.7655 19.6133 15.5929V15.5927C19.7673 15.3544 19.8929 15.0979 19.987 14.8285L19.9891 14.8226L19.9895 14.8216L19.9912 14.8166L19.9932 14.8107L19.9941 14.8082L19.9953 14.8048L19.9973 14.7988L19.9986 14.7948L19.9993 14.7929L20.0013 14.787L20.0032 14.7814C20.0403 14.6702 20.0722 14.5567 20.0987 14.4419C20.11 14.4423 20.1218 14.4428 20.1333 14.4428C20.1625 14.4428 20.1917 14.4406 20.2213 14.4366C20.3967 14.4117 20.572 14.3172 20.7344 14.1658V14.1655C20.8758 14.0339 21.0071 13.8594 21.1199 13.6511H21.1198C21.1715 13.5558 21.219 13.4536 21.2619 13.3452C21.5012 12.693 21.431 12.3208 21.3045 12.1133H21.3047C21.2576 12.0353 21.2025 11.9805 21.1528 11.9425C21.0446 11.8599 20.9093 11.8158 20.7611 11.8094C20.7977 11.663 20.8288 11.5126 20.8529 11.3591H20.8528C20.891 11.1155 20.9124 10.8646 20.9158 10.6105C20.9277 9.72436 20.7207 8.90882 20.3276 8.27289L20.7596 8.36428C20.7697 8.36649 20.78 8.3675 20.7901 8.3675C20.8299 8.3675 20.8684 8.35138 20.8962 8.32205C20.931 8.2853 20.9437 8.2332 20.9296 8.18479C20.6517 7.23005 19.7618 6.54694 18.7253 6.14407C18.2635 5.52307 17.7255 4.94136 17.1458 4.4213C19.6305 5.86824 22.031 8.63957 22.2193 11.3709V11.3709Z"
        fill="#083358" />
    <path
        d="M9.93636 11.2653L9.72916 11.2634C9.81847 10.1264 10.303 8.89956 11.1417 7.71757C11.1865 7.6546 11.2321 7.59184 11.2785 7.5294C11.3098 7.61214 11.3617 7.69993 11.4371 7.78922C10.649 8.86883 10.09 10.0684 9.93636 11.2653V11.2653ZM12.1579 6.90371C12.0406 6.87551 11.9338 6.86288 11.8383 6.86288C11.8311 6.86288 11.824 6.86288 11.8168 6.86312C12.7257 5.82354 13.8463 4.92758 15.0006 4.33159C15.3426 4.15497 15.7177 4.06664 16.0929 4.06664C16.38 4.06664 16.6669 4.11834 16.9391 4.22177C16.7793 4.19118 16.617 4.1758 16.4547 4.1758C16.0506 4.1758 15.6465 4.27093 15.2786 4.46097C14.4202 4.90423 13.5617 5.52247 12.7903 6.25516C12.7329 6.28206 12.6825 6.32539 12.6434 6.3832C12.6362 6.39398 12.6293 6.40537 12.6228 6.41731C12.4634 6.57476 12.3083 6.73705 12.1579 6.90371V6.90371Z"
        fill="#AFB5BC" />
    <path
        d="M22.6064 12.2926H22.607H22.6064ZM10.0475 13.111L10.0476 13.1111L10.0475 13.111ZM10.0586 13.1381L10.0587 13.1383L10.0586 13.1381ZM20.3941 15.5207L20.3928 15.5218L20.3941 15.5207ZM12.3318 16.4241L12.332 16.4242L12.3318 16.4241ZM12.5596 16.1468C12.6011 16.1764 12.6426 16.2059 12.6841 16.2348C14.7192 17.6512 17.4555 17.6533 19.4932 16.2399C19.4959 16.2378 19.4991 16.2358 19.5008 16.2346C19.6351 16.141 19.7682 16.0428 19.8961 15.9427C19.9333 15.9135 19.97 15.8843 20.0061 15.8551L20.0597 15.8109C20.1276 15.755 20.1986 15.6946 20.2707 15.6313C20.3077 15.5988 20.3443 15.5662 20.3802 15.5325C20.3832 15.5296 20.3866 15.5267 20.3899 15.524L20.3933 15.5207C20.3951 15.5189 20.3971 15.5172 20.3989 15.5154C20.4345 15.4832 20.4696 15.4503 20.5046 15.4169C20.548 15.3753 20.5917 15.3327 20.6342 15.2902C20.6656 15.2599 20.6934 15.2312 20.7219 15.202L20.7854 15.1353C20.8144 15.1049 20.8413 15.0766 20.8669 15.048C20.9246 14.9853 20.9805 14.9223 21.035 14.8594L21.1258 14.7519C21.1427 14.7315 21.1591 14.7113 21.1754 14.6912C21.2047 14.655 21.2335 14.6189 21.2624 14.5817C21.2913 14.544 21.321 14.5055 21.3499 14.4663C21.3694 14.4403 21.3882 14.4147 21.407 14.3885C21.4296 14.3576 21.4517 14.3271 21.4734 14.296C21.5209 14.2282 21.5685 14.1575 21.6192 14.0794C21.6473 14.0361 21.6749 13.9928 21.7018 13.9489L21.7031 13.9467C21.7248 13.9107 21.7466 13.8748 21.7677 13.8383C21.7997 13.7846 21.8295 13.7323 21.8587 13.6793C21.883 13.6349 21.907 13.5903 21.9305 13.5447L21.9332 13.5392C21.9544 13.4991 21.975 13.459 21.9945 13.4183L22.0057 13.3961C22.0258 13.3549 22.0468 13.3105 22.0672 13.2656C22.0896 13.2178 22.1104 13.171 22.1301 13.1248C22.1508 13.0771 22.1705 13.0302 22.189 12.9828C22.209 12.9337 22.2275 12.8865 22.2447 12.8388C22.2626 12.7924 22.2781 12.7489 22.2929 12.7049L22.3098 12.656C22.3194 12.6272 22.3291 12.5986 22.3382 12.5694L22.3449 12.5483C22.3501 12.5317 22.3555 12.5149 22.3603 12.4981C22.3614 12.4944 22.3625 12.4905 22.3639 12.4868C22.3656 12.4819 22.3669 12.477 22.3684 12.4721L22.3985 12.3689C22.4084 12.3331 22.4188 12.2952 22.4286 12.2577C22.6252 10.8656 22.1335 9.25377 21.0433 7.71761C20.0515 6.31994 18.6449 5.08574 17.1845 4.33163C16.5006 3.97836 15.684 3.97836 15 4.33163C13.5396 5.08574 12.1331 6.31994 11.1411 7.71761C10.0512 9.25377 9.55942 10.8655 9.75584 12.2576C9.76629 12.2967 9.77663 12.3353 9.78753 12.3739C9.79532 12.4031 9.80324 12.4295 9.81157 12.4564C9.81599 12.4723 9.81959 12.4837 9.82302 12.4947C9.8326 12.5259 9.84135 12.5546 9.8506 12.5835C9.8624 12.6201 9.87484 12.6564 9.88709 12.6923C9.90356 12.741 9.92092 12.7889 9.9388 12.8365C9.95706 12.8866 9.97551 12.9338 9.99455 12.9804C10.0132 13.0274 10.0319 13.0724 10.0513 13.1173L10.0523 13.1199C10.0539 13.1232 10.0555 13.1266 10.0569 13.1298C10.0925 13.2139 10.1332 13.3024 10.1814 13.4007C10.1825 13.4029 10.1836 13.4054 10.1846 13.4078C10.187 13.4117 10.1891 13.4158 10.1911 13.4198C10.2107 13.4607 10.2312 13.5015 10.2525 13.5416C10.2744 13.5835 10.2964 13.6246 10.3183 13.6656L10.3218 13.6717C10.3505 13.7233 10.3792 13.7749 10.4084 13.8254C10.4232 13.8504 10.4394 13.877 10.4554 13.9035L10.4762 13.9381C10.5079 13.9898 10.5409 14.0414 10.5744 14.093C10.5966 14.1279 10.619 14.1614 10.6415 14.1944C10.6805 14.2527 10.722 14.312 10.769 14.3773C10.788 14.4042 10.8065 14.4297 10.8256 14.4546C10.8264 14.4557 10.8302 14.4607 10.831 14.4618L10.8286 14.4592C10.8326 14.4637 10.8364 14.4684 10.8399 14.4732C10.8617 14.5033 10.8846 14.5329 10.9074 14.5624L10.9269 14.5879C10.9967 14.6772 11.0727 14.77 11.1519 14.8624C11.178 14.8928 11.205 14.9234 11.2318 14.9533C11.2677 14.9941 11.3024 15.0324 11.3377 15.0705C11.3741 15.1094 11.4118 15.149 11.4494 15.1886C11.4851 15.2253 11.5223 15.2625 11.5595 15.2997C11.5991 15.3395 11.637 15.3763 11.6755 15.4125C11.7153 15.4506 11.7541 15.4871 11.7935 15.523C11.8321 15.5589 11.8701 15.5926 11.9087 15.6268L11.9145 15.632C11.9544 15.6673 11.995 15.7021 12.0362 15.7369C12.0774 15.7717 12.1186 15.8066 12.1609 15.8408C12.2028 15.8746 12.2415 15.9057 12.2803 15.9366C12.2831 15.9385 12.2859 15.9406 12.2885 15.9427C12.3317 15.9765 12.3749 16.0098 12.4181 16.0425C12.4575 16.0719 12.4985 16.1021 12.5393 16.1322C12.5464 16.1368 12.5531 16.1416 12.5596 16.1468V16.1468ZM16.0922 17.6552C14.8243 17.6552 13.5566 17.2789 12.4752 16.5263C12.431 16.4955 12.3871 16.4642 12.3432 16.4329C12.3409 16.4313 12.3387 16.4296 12.3365 16.4279C12.3335 16.4259 12.3305 16.4239 12.3276 16.4218C12.2821 16.3882 12.2401 16.3573 12.1988 16.3265C12.1561 16.2941 12.114 16.2617 12.0721 16.2289C12.0686 16.2266 12.0652 16.2241 12.0619 16.2214C12.0195 16.1878 11.9777 16.1541 11.9358 16.1203C11.8871 16.081 11.8439 16.0445 11.8007 16.0079C11.7574 15.9713 11.7147 15.9348 11.6727 15.8976L11.6668 15.8923C11.6261 15.8562 11.5861 15.8208 11.5465 15.784C11.5062 15.7472 11.4653 15.7088 11.4245 15.6697C11.3845 15.632 11.3439 15.5926 11.3039 15.5526C11.263 15.5117 11.2245 15.4731 11.1867 15.4339C11.1475 15.3929 11.1093 15.3527 11.071 15.3119C11.0326 15.2703 10.996 15.2301 10.9596 15.1886C10.9322 15.158 10.9035 15.1255 10.8756 15.0929C10.7928 14.9964 10.7133 14.8994 10.6392 14.8045L10.6193 14.7786C10.5957 14.7479 10.572 14.7172 10.5493 14.6862C10.5453 14.681 10.5413 14.6758 10.5375 14.6706C10.5151 14.6414 10.4939 14.6121 10.4732 14.5828C10.4247 14.5157 10.3809 14.4529 10.3403 14.3923C10.3165 14.3576 10.2919 14.3208 10.2687 14.2842C10.2344 14.2313 10.1997 14.177 10.1657 14.1215L10.1445 14.0863C10.128 14.0589 10.1114 14.0314 10.0951 14.0038C10.064 13.9501 10.0342 13.8969 10.0046 13.8435L9.99975 13.8349C9.97575 13.7901 9.95306 13.7479 9.93114 13.7056C9.90923 13.6643 9.88754 13.6215 9.86685 13.5787C9.86195 13.5697 9.85741 13.5607 9.85336 13.5516C9.80466 13.4522 9.76308 13.3616 9.72627 13.2751C9.7227 13.2682 9.7188 13.2598 9.71534 13.2503C9.69566 13.2045 9.67665 13.1586 9.65817 13.1121C9.63804 13.0626 9.6178 13.011 9.59887 12.9588C9.5804 12.9099 9.56164 12.858 9.54404 12.806C9.53125 12.7688 9.51824 12.7303 9.5058 12.6916C9.496 12.6612 9.48666 12.6305 9.4772 12.5998C9.47308 12.5869 9.46819 12.571 9.46398 12.5557C9.45572 12.5294 9.44659 12.4986 9.43817 12.4674C9.42648 12.4257 9.41482 12.3819 9.40312 12.3376C9.40134 12.331 9.40002 12.3243 9.39902 12.3176C9.1258 10.4153 10.0344 8.65483 10.8447 7.51299C11.8688 6.06992 13.3221 4.79521 14.8322 4.01546C15.6212 3.60776 16.5634 3.60776 17.3523 4.01546C18.8625 4.79521 20.3158 6.06999 21.3398 7.51299C22.1502 8.65483 23.0588 10.4153 22.7856 12.3176C22.7846 12.3242 22.7832 12.3307 22.7816 12.337C22.7705 12.3797 22.7588 12.4228 22.747 12.4649L22.7161 12.5714C22.7133 12.5806 22.7106 12.5897 22.7074 12.599C22.7021 12.6178 22.6961 12.6366 22.6902 12.6551L22.6839 12.6748C22.674 12.7064 22.6636 12.7374 22.6532 12.7683L22.6509 12.7754C22.6457 12.7907 22.6406 12.8058 22.6354 12.8201C22.6197 12.8668 22.6026 12.9149 22.5842 12.9624C22.5667 13.0111 22.5466 13.0627 22.5257 13.1137C22.5066 13.1625 22.4853 13.2133 22.4635 13.2639C22.4424 13.3132 22.4198 13.3639 22.3966 13.4135C22.3757 13.4593 22.3533 13.5066 22.3303 13.5539L22.3199 13.5745C22.3004 13.6155 22.2776 13.6599 22.2541 13.7042C22.2286 13.7542 22.2031 13.8013 22.1771 13.849C22.1456 13.9062 22.1138 13.9622 22.0808 14.0175C22.0596 14.054 22.0367 14.0919 22.0139 14.1296L22.0131 14.1308L22.0114 14.1336C21.983 14.1801 21.9538 14.2259 21.924 14.2718C21.871 14.3535 21.821 14.4277 21.7715 14.4983C21.7488 14.5311 21.7251 14.5635 21.7016 14.5961C21.6821 14.6231 21.6623 14.6499 21.6419 14.6773C21.6118 14.7179 21.5811 14.7579 21.5504 14.798C21.5196 14.8377 21.4893 14.8754 21.4584 14.9137C21.4407 14.9357 21.4233 14.9572 21.4058 14.978L21.3104 15.0908C21.2537 15.1565 21.1952 15.2222 21.1366 15.286C21.11 15.3158 21.0805 15.3467 21.0512 15.3775L20.9849 15.4472C20.9519 15.4811 20.9214 15.5123 20.8898 15.543C20.8476 15.5851 20.8022 15.6294 20.7565 15.6732C20.7197 15.7083 20.6834 15.7424 20.6462 15.776C20.6393 15.7827 20.6323 15.7893 20.6254 15.7951C20.5879 15.8302 20.5499 15.8641 20.5113 15.898C20.4363 15.9637 20.3625 16.0266 20.2916 16.085L20.2371 16.1298C20.1979 16.1615 20.1598 16.1919 20.1211 16.2222C19.9878 16.3266 19.8493 16.4288 19.7094 16.5262C19.7083 16.527 19.7047 16.5294 19.7027 16.5308L19.7013 16.5318C18.6216 17.2808 17.3568 17.6551 16.0922 17.6552V17.6552Z"
        fill="#001F3F" />
    <path
        d="M21.1609 13.1941C21.1498 13.2275 21.1376 13.2614 21.1251 13.2962C20.7897 14.1436 20.132 14.5952 19.7337 14.0839L19.9713 12.933L20.1329 12.1506C20.7544 11.7319 21.5829 11.92 21.1609 13.1941V13.1941Z"
        fill="#FDBD91" />
    <path
        d="M19.8898 14.0444C19.9752 14.1327 20.0707 14.1683 20.1797 14.153C20.4648 14.1128 20.7902 13.7477 20.9895 13.2443C21.1827 12.7176 21.1776 12.3244 20.9743 12.1689C20.8153 12.0473 20.5286 12.0771 20.2627 12.2381L19.8898 14.0444V14.0444ZM20.1326 14.4428C19.9365 14.4428 19.7564 14.3485 19.6182 14.1713C19.5926 14.1384 19.5828 14.0962 19.5911 14.0554L19.9904 12.1221C19.9979 12.0856 20.0196 12.0534 20.0507 12.0324C20.4384 11.7714 20.881 11.7352 21.1521 11.9425C21.3341 12.0816 21.5902 12.4488 21.2612 13.3452C21.0165 13.9636 20.6183 14.3807 20.2207 14.4365C20.1911 14.4407 20.1617 14.4428 20.1326 14.4428V14.4428Z"
        fill="#001F3F" />
    <path
        d="M11.0245 13.1941C11.0356 13.2275 11.0478 13.2614 11.0603 13.2962C11.3957 14.1436 12.0534 14.5952 12.4517 14.0839L12.2141 12.933L12.0524 12.1506C11.4311 11.7319 10.6025 11.92 11.0245 13.1941Z"
        fill="#FDBD91" />
    <path
        d="M11.463 12.0941C11.3641 12.0941 11.2767 12.1186 11.211 12.1687C11.0077 12.3242 11.0026 12.7174 11.1972 13.2475C11.3951 13.7476 11.7205 14.1127 12.0056 14.1528C12.1147 14.1681 12.21 14.1325 12.2955 14.0442L11.9225 12.238C11.7666 12.1434 11.6032 12.0941 11.463 12.0941ZM12.0527 14.4426C12.0237 14.4426 11.9942 14.4405 11.9646 14.4363C11.5671 14.3805 11.1689 13.9635 10.9254 13.3483C10.5951 12.4486 10.8513 12.0815 11.0332 11.9424C11.3044 11.735 11.747 11.7711 12.1346 12.0322C12.1657 12.0533 12.1874 12.0854 12.1949 12.122L12.5942 14.0553C12.6027 14.096 12.5928 14.1382 12.5671 14.1712C12.429 14.3482 12.2488 14.4426 12.0527 14.4426Z"
        fill="#001F3F" />
    <path
        d="M20.0452 12.9621V13.6237C20.0452 14.7618 19.4931 15.8411 18.542 16.4855C18.5285 16.4947 18.5149 16.5032 18.5019 16.5122C17.0515 17.4714 15.1524 17.4714 13.7021 16.5128C13.6889 16.5036 13.6754 16.4947 13.6618 16.4855C12.7104 15.8415 12.1582 14.7622 12.1582 13.6237V12.9621C12.1582 12.9621 12.1607 12.9196 12.1654 12.8432C12.2013 12.2393 12.3634 9.52983 12.3896 9.4606C13.2529 7.1683 21.8848 7.73015 20.0452 12.9621V12.9621Z"
        fill="#FDBD91" />
    <path
        d="M15.4875 8.20983C15.1426 8.20983 14.8026 8.23486 14.4788 8.28601C13.388 8.45805 12.6368 8.88997 12.4179 9.47105C12.397 9.54728 12.2851 11.3365 12.1956 12.845C12.1907 12.9214 12.1884 12.9639 12.1884 12.9639V13.6238C12.1884 14.7687 12.7457 15.8295 13.679 16.4611C13.6951 16.472 13.7076 16.4803 13.7195 16.4885C15.1667 17.4449 17.0376 17.4447 18.4852 16.4876C18.493 16.4823 18.5015 16.4767 18.5102 16.471L18.5252 16.461C19.4581 15.8288 20.0152 14.7682 20.0152 13.6238L20.0167 12.9525C21.0257 10.0828 18.7999 8.94604 17.7962 8.59046C17.0917 8.34086 16.2767 8.20983 15.4875 8.20983V8.20983ZM16.1015 17.2651C15.2604 17.2651 14.4193 17.0226 13.6854 16.5376C13.6731 16.5291 13.661 16.521 13.6489 16.5129C12.6952 15.8674 12.1281 14.7884 12.1281 13.6238V12.9622C12.1282 12.9605 12.1306 12.918 12.1355 12.8415C12.1945 11.8454 12.3347 9.52096 12.3614 9.45031C12.588 8.84863 13.3562 8.40285 14.4692 8.22719C15.5435 8.05768 16.7949 8.17254 17.8166 8.53451C18.8368 8.89581 21.0979 10.0509 20.0755 12.9672V13.6238C20.0755 14.7878 19.5086 15.8668 18.5591 16.5101L18.5436 16.5205C18.5353 16.5258 18.5272 16.5312 18.5193 16.5367C17.7849 17.0223 16.9432 17.2651 16.1015 17.2651V17.2651Z"
        fill="#000072" />
    <path
        d="M12.5372 12.6453C12.8557 12.1313 13.0181 11.7529 13.1238 11.2929L13.3968 11.2952C13.2668 11.768 13.0003 12.1616 12.5372 12.6453ZM18.2477 11.3368H18.2467C17.9966 11.3741 17.7254 11.3958 17.4444 11.3958C17.1617 11.3958 16.8709 11.3737 16.5816 11.3224H16.5818C16.2158 11.2574 15.8552 11.1455 15.5254 10.9727C15.5106 10.965 15.4954 10.9615 15.481 10.9615C15.4166 10.9615 15.3639 11.0298 15.3968 11.0957C15.415 11.132 15.4224 11.1443 15.4224 11.1443C15.3707 11.1757 15.2688 11.191 15.1373 11.191C14.7685 11.191 14.1681 11.0715 13.798 10.859C13.7617 10.8383 13.7229 10.8287 13.6848 10.8287C13.5762 10.8287 13.4736 10.9066 13.4551 11.0233C13.4401 11.1173 13.4209 11.2076 13.397 11.2951L13.1241 11.2927C13.2004 10.9619 13.2477 10.5891 13.304 10.0935C13.6437 10.5986 14.151 10.864 14.8176 10.8843C14.8191 10.8843 14.8206 10.8843 14.822 10.8843C14.8783 10.8843 14.9297 10.852 14.9536 10.8013C14.9781 10.7494 14.9688 10.688 14.93 10.6453C14.927 10.6421 14.7123 10.4029 14.614 10.0992C15.6002 10.8501 16.672 11.2271 17.8168 11.2271C18.2513 11.2271 18.6963 11.1728 19.1512 11.064C19.152 11.0769 19.1529 11.0905 19.1539 11.1045C18.9201 11.1996 18.6059 11.2837 18.2477 11.3368V11.3368Z"
        fill="#B18488" />
    <path
        d="M12.39 9.46044H12.3906H12.39ZM12.5272 9.50752L12.5262 9.51028C12.5265 9.50951 12.5268 9.5086 12.5272 9.50752ZM12.5262 9.51037H12.526H12.5262ZM12.3038 12.9663V13.6237C12.3038 14.7314 12.8425 15.7571 13.7446 16.3677C13.7575 16.3765 13.7704 16.3851 13.7834 16.3937C15.1924 17.3251 17.0129 17.325 18.4212 16.3935L18.46 16.3676C19.362 15.7568 19.9005 14.731 19.9005 13.6237V12.9622C19.9005 12.9462 19.9032 12.9303 19.9084 12.9152C20.8838 10.1416 18.7296 9.04154 17.7581 8.69737C15.6525 7.95141 12.973 8.3645 12.5301 9.50003C12.5032 9.68505 12.3809 11.661 12.3038 12.9663V12.9663ZM16.1022 17.3788C15.2387 17.3788 14.3754 17.1298 13.6219 16.6318C13.608 16.6225 13.5941 16.6132 13.5802 16.6039C12.5991 15.9399 12.0135 14.8258 12.0135 13.6237V12.9622C12.0135 12.9593 12.0135 12.9566 12.0137 12.9538C12.2167 9.51135 12.2448 9.43499 12.2539 9.41063C12.7852 8.00045 15.7786 7.69168 17.8563 8.4278C18.8461 8.77845 19.5954 9.33461 20.0235 10.036C20.5273 10.8615 20.5836 11.8539 20.1908 12.9861V13.6237C20.1908 14.8255 19.6053 15.9395 18.6245 16.6036L18.5831 16.6312C17.8296 17.1296 16.9659 17.3787 16.1022 17.3788V17.3788Z"
        fill="#001F3F" />
    <path
        d="M19.9998 8.05721C21.0887 9.42966 20.9532 11.818 20.0361 13.0696C19.3343 12.6877 19.288 10.8813 19.288 10.8813C17.6269 11.3272 15.9462 11.0551 14.4223 9.76001C14.3898 10.2689 14.822 10.741 14.822 10.741C14.626 10.7353 14.4503 10.7071 14.2926 10.6603C13.7413 10.4975 13.4132 10.1038 13.2123 9.60871C13.0188 11.3272 13.0066 11.7091 12.1583 12.9622C11.3114 11.1721 11.1556 8.96424 12.5673 8.30406C10.599 7.63568 11.3249 6.28285 13.0188 7.48437C12.1879 6.30667 13.2366 5.85278 13.4543 7.15019C14.6792 4.94335 20.0603 5.71815 20.7897 8.22431L20.0017 8.05766C20.0003 8.05721 19.9998 8.05721 19.9998 8.05721V8.05721Z"
        fill="#AC3D50" />
    <path
        d="M19.3172 10.8427L19.3181 10.8806C19.3186 10.8983 19.371 12.6338 20.0276 13.0303C20.9007 11.8134 21.0651 9.44825 19.9762 8.07555L19.9379 8.02751L20.0117 8.02972L20.7461 8.18474C20.3236 6.85268 18.607 6.08817 17.0772 5.9205C15.753 5.77526 14.1129 6.02582 13.4809 7.16458L13.439 7.24008L13.4246 7.15515C13.3399 6.64969 13.1318 6.43266 12.9793 6.40042C12.9019 6.38409 12.8342 6.41192 12.7888 6.47918C12.6891 6.62709 12.696 6.97468 13.0435 7.4674L13.1441 7.60994L13.0013 7.50856C12.2902 7.00417 11.7797 6.97139 11.5589 7.09648C11.4562 7.15471 11.4057 7.25051 11.4169 7.36624C11.4406 7.61222 11.7586 7.99802 12.5771 8.2759L12.6471 8.29972L12.5803 8.33101C11.2059 8.97361 11.3298 11.1071 12.1632 12.9015C12.9436 11.7403 12.9905 11.3211 13.1592 9.81272L13.1958 9.48754L13.2405 9.59769C13.4641 10.1488 13.811 10.4871 14.3013 10.6319C14.4411 10.6733 14.5937 10.699 14.7551 10.7084C14.6434 10.5699 14.3653 10.1801 14.3922 9.75819L14.396 9.69839L14.4419 9.73756C15.8744 10.9548 17.502 11.33 19.28 10.8527L19.3172 10.8427V10.8427ZM20.045 13.1084L20.0216 13.0957C19.3612 12.7364 19.2701 11.1896 19.2591 10.9199C17.4949 11.3824 15.8777 11.0136 14.4507 9.82312C14.4554 10.29 14.8404 10.7167 14.8445 10.721L14.8917 10.7727L14.8212 10.7708C14.6291 10.7651 14.4484 10.7376 14.2839 10.6889C13.8072 10.548 13.4613 10.2323 13.2297 9.72494L13.2192 9.8193C13.047 11.3581 13.0007 11.7716 12.1835 12.9787L12.1537 13.0227L12.131 12.9749C11.2781 11.1718 11.1363 9.00947 12.4903 8.30872C11.6953 8.02401 11.3827 7.64064 11.3568 7.37184C11.3433 7.2315 11.4045 7.11542 11.5289 7.04489C11.7622 6.91278 12.2421 6.93639 12.9093 7.37349C12.6298 6.92235 12.6377 6.59582 12.7386 6.44615C12.7977 6.35849 12.8905 6.32064 12.9919 6.34225C13.1619 6.37825 13.3716 6.58779 13.4692 7.06509C14.1428 5.9611 15.7679 5.7171 17.0839 5.86138C18.6518 6.0332 20.4148 6.82809 20.8187 8.2161L20.8326 8.26386L20.0733 8.10331C21.1298 9.51295 20.9464 11.8782 20.0606 13.0871L20.045 13.1084V13.1084Z"
        fill="#000072" />
    <path
        d="M12.8263 11.2901L12.4474 11.2868C12.6423 10.7504 12.7089 10.2019 12.8047 9.34692C12.8116 9.28546 12.8627 9.25067 12.9143 9.25067C12.9519 9.25067 12.9899 9.26934 13.0109 9.30949C13.0443 9.37291 13.0763 9.44003 13.1053 9.51201C13.0851 9.53385 13.0717 9.56182 13.0681 9.59276L13.0449 9.80023C12.971 10.4604 12.9212 10.9053 12.8263 11.2901V11.2901ZM12.2297 12.5914C12.166 12.4238 12.1094 12.2544 12.0603 12.0838C12.2306 11.7994 12.3538 11.5443 12.4474 11.2869L12.8263 11.2902C12.7189 11.7261 12.5535 12.0845 12.2297 12.5914V12.5914Z"
        fill="#782B5A" />
    <path
        d="M11.7309 7.68526C11.606 7.56601 11.5408 7.45101 11.5316 7.35547C11.5247 7.28358 11.5524 7.23104 11.6163 7.19483C11.6715 7.16368 11.7466 7.14658 11.8389 7.14658C11.8851 7.14658 11.9356 7.15085 11.99 7.15983C11.708 7.21184 11.6001 7.42744 11.7309 7.68526Z"
        fill="#DAA8B0" />
    <path
        d="M11.7526 11.2808L11.7526 11.2807C11.6806 10.9065 11.6485 10.5452 11.6607 10.2144C11.6834 9.59794 11.8699 8.78846 12.6293 8.43331C12.6333 8.43144 12.6373 8.42934 12.6411 8.42717C12.6715 8.50022 12.656 8.58898 12.5858 8.64649C11.9218 9.18956 11.7324 10.2 11.8867 11.2817L11.8867 11.2819C11.9246 11.5469 11.9829 11.8161 12.06 12.0838C12.1091 12.2542 12.1657 12.4238 12.2293 12.5914C12.214 12.6153 12.1984 12.6394 12.1825 12.664C12.1145 12.5059 12.0529 12.3462 11.9974 12.1863C11.8921 11.8822 11.8097 11.5775 11.7526 11.2808V11.2808Z"
        fill="#DAA8B0" />
    <path
        d="M13.143 7.40962C13.1415 7.40719 13.14 7.40488 13.1383 7.40245C12.8011 6.92452 12.8251 6.63059 12.8849 6.54195C12.9024 6.51596 12.9206 6.50912 12.9377 6.50912C12.9438 6.50912 12.9498 6.51004 12.9555 6.51123C12.9901 6.5186 13.0403 6.54832 13.0933 6.61118C13.0132 6.73579 13.0055 6.96951 13.1494 7.2822C13.1701 7.32742 13.1644 7.37317 13.143 7.40962V7.40962Z"
        fill="#DAA8B0" />
    <path
        d="M13.7402 7.12801C13.7087 7.12801 13.6774 7.12164 13.6489 7.10888C14.1143 6.40517 15.1425 5.99583 16.3965 5.99583C16.6131 5.99583 16.8365 6.00801 17.0648 6.03302C17.8848 6.12297 18.7591 6.38641 19.4481 6.81837C18.5586 6.46189 17.4452 6.23062 16.4257 6.22589C16.334 6.39959 16.1275 6.47703 15.9167 6.47703C15.7282 6.47703 15.5364 6.41504 15.4201 6.30468C14.7861 6.41681 14.2494 6.6537 13.9145 7.04845C13.8696 7.10155 13.8045 7.12801 13.7402 7.12801Z"
        fill="#DAA8B0" />
    <path
        d="M19.4378 10.9889C19.4654 11.4913 19.6029 12.508 20.0002 12.8679C20.7911 11.6589 20.9163 9.4445 19.8856 8.14555C19.8479 8.09804 19.8445 8.03243 19.8769 7.98129C19.9093 7.93017 19.9704 7.90462 20.0304 7.91722L20.5662 8.03057C20.0632 6.86295 18.4825 6.18864 17.0645 6.03318C15.4469 5.85597 14.0801 6.32137 13.5818 7.21897C13.552 7.27266 13.4911 7.30173 13.4301 7.29142C13.3691 7.2812 13.3213 7.2339 13.3112 7.17366C13.2305 6.69226 13.0431 6.52996 12.9553 6.51132C12.9337 6.50672 12.9085 6.50672 12.8846 6.54205C12.8248 6.63068 12.8008 6.92462 13.138 7.40255C13.1784 7.4598 13.1712 7.5375 13.1208 7.58645C13.0703 7.63535 12.9914 7.6413 12.9342 7.6007C12.3102 7.1581 11.8226 7.07798 11.6162 7.19485C11.5523 7.23106 11.5245 7.2836 11.5314 7.35549C11.5536 7.58467 11.8971 7.92504 12.6147 8.16869C12.6705 8.18757 12.7091 8.23792 12.7124 8.29608C12.7156 8.35423 12.6829 8.40854 12.6296 8.43346C11.8702 8.78862 11.6837 9.59809 11.661 10.2146C11.6341 10.9455 11.823 11.8259 12.1829 12.6641C12.8371 11.6581 12.8834 11.2437 13.0449 9.80029L13.0682 9.59282C13.0756 9.52754 13.127 9.47567 13.193 9.46676C13.2592 9.45787 13.3226 9.49464 13.3472 9.55551C13.5811 10.1322 13.9648 10.4651 14.5156 10.5659C14.391 10.3626 14.2574 10.0663 14.2775 9.75103C14.2809 9.69683 14.3152 9.64912 14.366 9.62805C14.4167 9.60696 14.4754 9.61596 14.5172 9.65152C15.9185 10.8423 17.5102 11.2098 19.2487 10.7435L19.2499 10.7432L19.2504 10.7431L19.2505 10.7431C19.4308 10.6952 19.613 10.6378 19.7923 10.5724C19.8675 10.545 19.951 10.5827 19.9788 10.657C20.0066 10.7312 19.9683 10.8135 19.8931 10.841C19.7425 10.8959 19.5898 10.9455 19.4378 10.9889V10.9889ZM20.0361 13.2128C20.0123 13.2128 19.9883 13.207 19.9662 13.1951C19.3258 12.8466 19.1829 11.5599 19.1513 11.0639C17.4983 11.4593 15.9747 11.1351 14.6141 10.0992C14.7124 10.4029 14.9272 10.6421 14.9301 10.6452C14.9689 10.6879 14.9782 10.7493 14.9538 10.8012C14.9299 10.8519 14.8785 10.8842 14.8222 10.8842C14.8207 10.8842 14.8192 10.8842 14.8177 10.8842C14.1511 10.864 13.6438 10.5985 13.3041 10.0935C13.1508 11.444 13.0635 11.8833 12.2791 13.0418C12.2501 13.0847 12.2001 13.1088 12.1474 13.105C12.0951 13.101 12.0491 13.0697 12.0268 13.0228C11.1946 11.2636 11.0341 9.1655 12.2343 8.33031C11.5478 8.03617 11.2689 7.65843 11.2423 7.3826C11.2245 7.19804 11.3082 7.03904 11.4717 6.94646C11.6914 6.82194 12.0953 6.81281 12.6372 7.0846C12.5176 6.76386 12.5489 6.52273 12.6428 6.38327C12.7284 6.25667 12.8681 6.19984 13.0161 6.23131C13.2294 6.27651 13.4063 6.48145 13.5158 6.79821C14.2835 5.82581 15.8306 5.60989 17.0966 5.74856C18.7027 5.92466 20.5107 6.74622 20.9293 8.18482C20.9434 8.23323 20.9307 8.28533 20.8959 8.32208C20.8611 8.35885 20.8093 8.37485 20.7593 8.36431L20.3273 8.27292C20.7204 8.90885 20.9274 9.72439 20.9155 10.6106C20.9025 11.5839 20.6249 12.5107 20.1539 13.1535C20.1258 13.192 20.0814 13.2128 20.0361 13.2128V13.2128Z"
        fill="#001F3F" />
    <path
        d="M20.5578 11.3566H20.5575L20.5578 11.3568C20.4623 11.9265 20.27 12.4555 20.0005 12.868C19.6833 12.5809 19.5318 11.8758 19.4695 11.3472C19.4537 11.2133 19.4436 11.0905 19.438 10.9889C19.5901 10.9455 19.7426 10.8959 19.8932 10.841C19.9684 10.8135 20.0068 10.7312 19.979 10.657C19.9573 10.5992 19.9019 10.5634 19.8429 10.5634C19.8261 10.5634 19.8091 10.5663 19.7925 10.5724C19.6136 10.6377 19.4318 10.695 19.2519 10.7427C19.2513 10.7429 19.2507 10.743 19.2501 10.7432C18.7626 10.874 18.2869 10.9393 17.8235 10.9393C16.6337 10.9393 15.526 10.5088 14.5174 9.65153C14.4905 9.62874 14.4567 9.61674 14.4225 9.61674C14.4035 9.61674 14.3844 9.6205 14.3662 9.62806C14.3154 9.64913 14.2811 9.69684 14.2777 9.75106C14.2575 10.0663 14.3911 10.3626 14.5158 10.5659C14.3951 10.5439 14.2824 10.5106 14.1777 10.4661C13.7174 9.6579 13.7725 9.29857 14.2394 9.29857C14.4238 9.29857 14.6724 9.35463 14.9791 9.46119C16.2746 9.87349 17.4265 10.1439 18.3042 10.1439C19.4854 10.1439 20.1703 9.65473 20.0431 8.36424C20.5917 9.20652 20.7271 10.3457 20.5578 11.3566V11.3566Z"
        fill="#782B5A" />
    <path
        d="M18.2695 9.64355C17.7384 9.64355 17.3077 9.46768 17.3077 9.25067C17.3077 9.03375 17.7384 9.02815 18.2695 9.02815C18.8007 9.02815 19.2313 9.03375 19.2313 9.25067C19.2313 9.46768 18.8007 9.64355 18.2695 9.64355Z"
        fill="#BC6473" />
    <path
        d="M16.6106 15.6104C16.6106 15.6104 16.4023 15.7416 15.8596 15.7416C15.7418 15.7497 15.4049 15.7314 14.9792 15.348C14.9792 15.348 15.1758 15.9072 15.8469 15.9072C15.8469 15.9072 16.2288 15.9414 16.6106 15.6104V15.6104Z"
        fill="#001F3F" />
    <path
        d="M13.5293 13.125C13.5748 12.9789 13.6839 12.8574 13.8184 12.7747C13.9535 12.6921 14.1153 12.6499 14.276 12.6515C14.4367 12.6526 14.5963 12.6981 14.73 12.7802C14.863 12.8626 14.9722 12.9808 15.0232 13.125C14.8771 13.0755 14.7528 13.036 14.63 13.0105C14.508 12.9845 14.3904 12.9717 14.273 12.97C14.1555 12.9689 14.0384 12.9791 13.9175 13.0045C13.7958 13.0293 13.6729 13.0698 13.5293 13.125V13.125Z"
        fill="#001F3F" />
    <path
        d="M18.7328 13.125C18.5891 13.0698 18.4662 13.0293 18.3445 13.0045C18.2237 12.9791 18.1064 12.9689 17.989 12.97C17.8715 12.9717 17.7539 12.9845 17.6319 13.0105C17.5091 13.036 17.3848 13.0755 17.2387 13.125C17.2898 12.9808 17.3989 12.8626 17.532 12.7802C17.6656 12.6981 17.8252 12.6526 17.986 12.6515C18.1466 12.6499 18.3085 12.6921 18.4437 12.7747C18.5781 12.8574 18.6872 12.9789 18.7328 13.125V13.125Z"
        fill="#001F3F" />
    <path
        d="M14.9217 13.9975C14.9217 14.3561 14.6982 14.6469 14.4225 14.6469C14.1469 14.6469 13.9235 14.3561 13.9235 13.9975C13.9235 13.6388 14.1469 13.348 14.4225 13.348C14.6982 13.348 14.9217 13.6388 14.9217 13.9975Z"
        fill="#001F3F" />
    <path
        d="M14.7008 13.8469C14.7008 13.9673 14.6333 14.065 14.55 14.065C14.4666 14.065 14.3991 13.9673 14.3991 13.8469C14.3991 13.7264 14.4666 13.6287 14.55 13.6287C14.6333 13.6287 14.7008 13.7264 14.7008 13.8469Z"
        fill="white" />
    <path
        d="M17.3743 13.9975C17.3743 14.3561 17.5978 14.6469 17.8734 14.6469C18.1491 14.6469 18.3725 14.3561 18.3725 13.9975C18.3725 13.6388 18.1491 13.348 17.8734 13.348C17.5978 13.348 17.3743 13.6388 17.3743 13.9975Z"
        fill="#001F3F" />
    <path
        d="M17.5948 13.8469C17.5948 13.9673 17.6624 14.065 17.7457 14.065C17.829 14.065 17.8964 13.9673 17.8964 13.8469C17.8964 13.7264 17.829 13.6287 17.7457 13.6287C17.6624 13.6287 17.5948 13.7264 17.5948 13.8469Z"
        fill="white" />
    <path fill-rule="evenodd" clip-rule="evenodd"
        d="M24.2449 17.7387L25.3885 13.5222L24.2449 17.7387ZM25.4808 13.1822L25.7728 12.1055L25.4808 13.1822ZM25.865 11.7654L25.9633 11.4029L25.865 11.7654Z"
        fill="url(#paint0_linear_447_65)" />
    <path fill-rule="evenodd" clip-rule="evenodd"
        d="M25.3889 13.5223L25.4811 13.1823L25.3889 13.5223Z" fill="url(#paint1_linear_447_65)" />
    <path fill-rule="evenodd" clip-rule="evenodd"
        d="M23.3632 20.9897L23.7844 19.4366L23.3632 20.9897Z" fill="url(#paint2_linear_447_65)" />
    <path fill-rule="evenodd" clip-rule="evenodd"
        d="M23.7848 19.4365L24.0367 18.5075V18.5076L23.7848 19.4365Z"
        fill="url(#paint3_linear_447_65)" />
    <path fill-rule="evenodd" clip-rule="evenodd"
        d="M24.0365 18.5077V18.5075L24.245 17.7388L24.0365 18.5077Z"
        fill="url(#paint4_linear_447_65)" />
    <path
        d="M23.39 25.5523C23.3126 25.9297 23.1055 26.2545 22.8199 26.4852C22.5344 26.7152 22.1704 26.8511 21.7796 26.8511H10.6852C9.90385 26.8511 9.23024 26.3077 9.07486 25.5523H23.39Z"
        fill="#C6D3E3" />
    <path
        d="M9.11322 25.582C9.27887 26.3023 9.93458 26.8212 10.6863 26.8212H21.7806C22.1517 26.8212 22.5144 26.6937 22.8019 26.462C23.0797 26.2376 23.2747 25.9262 23.3538 25.582H9.11322V25.582ZM21.7806 26.8808H10.6863C9.89363 26.8808 9.20389 26.3245 9.0464 25.5582L9.03905 25.5224H23.4279L23.4206 25.558C23.3443 25.93 23.1382 26.2674 22.8401 26.5081C22.5418 26.7484 22.1656 26.8808 21.7806 26.8808V26.8808Z"
        fill="#000072" />
    <path
        d="M9.31488 25.7308C9.52421 26.2875 10.0694 26.6725 10.6859 26.6725H21.7804C22.3968 26.6725 22.942 26.2875 23.1515 25.7308H9.31488ZM21.7804 27.0293H10.6859C9.82175 27.0293 9.06994 26.423 8.89831 25.5877C8.88755 25.5352 8.9012 25.4807 8.93559 25.4392C8.96996 25.3978 9.02134 25.3737 9.07574 25.3737H23.3907C23.4449 25.3737 23.4963 25.3978 23.5307 25.4392C23.5651 25.4807 23.5787 25.5352 23.5679 25.5877C23.3963 26.423 22.6445 27.0293 21.7804 27.0293V27.0293Z"
        fill="#001F3F" />
    <path
        d="M21.7803 26.6726H16.1758C16.6929 26.5444 17.1764 26.3493 17.6249 26.0843H22.0301C22.334 26.0843 22.6048 25.9479 22.7809 25.7309H23.1514C22.9418 26.2876 22.3967 26.6726 21.7803 26.6726Z"
        fill="#8A93C1" />
    <path
        d="M23.3863 18.6898L22.8072 25.2035C22.772 25.601 22.4347 25.9058 22.0301 25.9058H10.4361C10.032 25.9058 9.69471 25.601 9.65889 25.2035L9.08037 18.6898C9.0232 18.0502 9.53455 17.4995 10.1852 17.4995H22.281C22.4939 17.4995 22.692 17.5584 22.8601 17.66C23.2059 17.8696 23.4248 18.2597 23.3863 18.6898V18.6898Z"
        fill="#C6D3E3" />
    <path
        d="M10.1852 17.5294C9.88342 17.5294 9.59354 17.6554 9.38967 17.8751C9.18564 18.0947 9.08376 18.3909 9.11035 18.6874L9.68887 25.2011C9.72343 25.586 10.0447 25.8763 10.436 25.8763H22.03C22.4218 25.8763 22.743 25.586 22.7771 25.2011L23.3562 18.6874C23.3925 18.2828 23.1962 17.8989 22.8442 17.6856C22.6751 17.5834 22.4803 17.5294 22.2809 17.5294H10.1852V17.5294ZM22.03 25.9358H10.436C10.0132 25.9358 9.66616 25.6222 9.62881 25.2063L9.05029 18.6927C9.02226 18.3794 9.12981 18.0668 9.34513 17.8348C9.56038 17.6029 9.86663 17.4699 10.1852 17.4699H22.2809C22.4915 17.4699 22.6971 17.5269 22.8758 17.6349C23.2474 17.86 23.4545 18.2653 23.4162 18.6927L22.8372 25.2062C22.8004 25.6222 22.4533 25.9358 22.03 25.9358V25.9358Z"
        fill="#000072" />
    <path
        d="M10.1188 25.6392C9.96357 25.5444 9.85601 25.3811 9.83889 25.1879L9.25982 18.6742C9.23681 18.4153 9.3221 18.1671 9.50021 17.9755C9.67816 17.7839 9.92132 17.6782 10.1848 17.6782H22.2805C22.4797 17.6782 22.6672 17.7386 22.8237 17.8507C22.8217 17.8619 22.8196 17.8732 22.8175 17.8844C22.79 17.8824 22.7622 17.8813 22.7341 17.8813H10.6383C9.98772 17.8813 9.47639 18.4321 9.53345 19.0717L10.1121 25.5854C10.1137 25.6035 10.116 25.6214 10.1188 25.6392V25.6392Z"
        fill="#F1F4F8" />
    <path
        d="M10.1851 17.678C9.92161 17.678 9.67845 17.7837 9.50051 17.9753C9.32239 18.167 9.2371 18.4152 9.26011 18.6741L9.83918 25.1878C9.86652 25.4953 10.123 25.7271 10.436 25.7271H22.03C22.343 25.7271 22.5996 25.4953 22.6269 25.1878L23.2058 18.6741C23.2289 18.4152 23.1436 18.167 22.9656 17.9753C22.7875 17.7837 22.5444 17.678 22.2808 17.678H10.1851V17.678ZM22.03 26.0841H10.436C9.93406 26.0841 9.5225 25.7122 9.47856 25.219L8.89963 18.7052C8.86803 18.3506 8.98982 17.9967 9.23362 17.7341C9.47735 17.4717 9.82428 17.3212 10.1851 17.3212H22.2808C22.6418 17.3212 22.9886 17.4717 23.2325 17.7341C23.4761 17.9967 23.598 18.3506 23.5665 18.7052L22.9874 25.219C22.9436 25.7122 22.5321 26.0841 22.03 26.0841V26.0841Z"
        fill="#001F3F" />
    <path
        d="M22.0303 25.7273H13.2025C18.592 24.9507 21.9563 22.4695 22.8181 17.8843C22.8373 17.8858 22.8565 17.8877 22.8753 17.89C22.907 17.9162 22.9373 17.9447 22.9659 17.9754C23.1438 18.1671 23.2292 18.4153 23.2061 18.6742L22.6272 25.1879C22.5998 25.4954 22.3433 25.7273 22.0303 25.7273Z"
        fill="#8A93C1" />
    <path
        d="M22.8751 17.89C22.8562 17.8877 22.837 17.8858 22.8178 17.8844C22.8199 17.8732 22.822 17.8619 22.824 17.8507C22.8415 17.8632 22.8585 17.8763 22.8751 17.89Z"
        fill="#A8AAD0" />
    <path
        d="M11.2394 23.0354C11.0645 23.0354 10.9154 22.9042 10.8988 22.729L10.6493 20.0993C10.6316 19.9136 10.77 19.7489 10.9583 19.7315L11.6846 19.6644C11.6954 19.6634 11.7062 19.663 11.7169 19.663C11.8917 19.663 12.0409 19.7943 12.0575 19.9693L12.307 22.599C12.3247 22.7848 12.1863 22.9495 11.998 22.9669L11.2716 23.0339C11.2609 23.035 11.25 23.0354 11.2394 23.0354Z"
        fill="#D7E0EB" />
    <path fill-rule="evenodd" clip-rule="evenodd"
        d="M19.5171 15.1833C19.5193 15.1791 19.5215 15.1749 19.5237 15.1708C19.5496 15.1211 19.5742 15.0708 19.5975 15.0199C19.6017 15.0107 19.6058 15.0016 19.6099 14.9924C19.614 14.9833 19.618 14.9742 19.622 14.965C19.6437 14.9152 19.6642 14.8648 19.6836 14.8139C19.7399 14.665 19.7857 14.5114 19.8205 14.3544C19.83 14.3116 19.8386 14.2685 19.8465 14.2251C19.8479 14.2173 19.8493 14.2095 19.8506 14.2017C19.852 14.1936 19.8534 14.1855 19.8547 14.1775C19.8847 13.9963 19.9002 13.8112 19.9002 13.6237V13.5222V13.3844V13.2773V13.1822V13.1709L19.9002 13.1548C19.8634 13.1296 19.8283 13.1013 19.7949 13.0701C19.6497 12.9343 19.5368 12.7444 19.449 12.5323L19.4042 13.1822L19.4001 13.242C19.4001 13.3359 19.3963 13.4293 19.3889 13.5222C19.3605 13.8761 19.2789 14.2213 19.1486 14.5461C19.1486 14.5462 19.1485 14.5463 19.1485 14.5464V14.8139L19.1483 14.5464C19.1119 14.6373 19.0716 14.7265 19.0276 14.8139C19.0019 14.8649 18.975 14.9153 18.9468 14.965C18.9416 14.9742 18.9364 14.9833 18.9311 14.9924C18.9258 15.0016 18.9204 15.0107 18.915 15.0199C18.8848 15.071 18.8532 15.1213 18.8204 15.1709C18.8037 15.1959 18.7867 15.2208 18.7694 15.2455C18.6568 15.4055 18.5302 15.5565 18.3903 15.6963C18.385 15.7016 18.3797 15.7068 18.3743 15.7121C18.2617 15.8233 18.1405 15.9272 18.0113 16.0226C17.9739 16.0502 17.9358 16.0775 17.897 16.1035C17.8833 16.1127 17.8699 16.1213 17.8569 16.1305C17.6628 16.2586 17.4609 16.3698 17.2531 16.4637L17.2472 16.4664L17.2413 16.469L17.2372 16.4709C16.9913 16.5809 16.7374 16.6669 16.479 16.7289V16.729C16.1437 16.8095 15.8003 16.8498 15.4573 16.8498C15.1667 16.8498 14.8761 16.8211 14.5903 16.7633L15.1127 16.9738C15.1208 16.9758 15.1288 16.9777 15.1368 16.9796C15.4542 17.0546 15.778 17.0921 16.1019 17.0921C16.228 17.0921 16.3534 17.0864 16.479 17.0751C16.7345 17.052 16.9883 17.0056 17.2372 16.9356V16.9357C17.5021 16.8613 17.7613 16.7602 18.0113 16.6325V16.6315C18.1401 16.5658 18.2666 16.4931 18.3903 16.4132C18.4135 16.3982 18.4366 16.383 18.4597 16.3674C18.5683 16.294 18.6716 16.2145 18.7695 16.1293C18.9072 16.0096 19.0339 15.879 19.1486 15.7393C19.2865 15.5715 19.4071 15.3904 19.5089 15.1989C19.5116 15.1937 19.5144 15.1885 19.5173 15.1833H19.5171V15.1833Z"
        fill="#979BA4" />
    <path fill-rule="evenodd" clip-rule="evenodd"
        d="M14.3456 16.706C14.3462 16.7063 14.3468 16.7066 14.3474 16.7069C14.346 16.7065 14.3447 16.7061 14.3432 16.7058C14.5925 16.8209 14.8504 16.9102 15.113 16.9739C14.9315 16.9188 14.7564 16.849 14.5906 16.7635C14.5904 16.7634 14.5901 16.7633 14.59 16.7631C14.5892 16.7629 14.5885 16.7628 14.5878 16.7626C14.3924 16.6608 14.2099 16.5371 14.0456 16.3904C14.0332 16.38 14.0188 16.3719 14.005 16.3638C13.5464 16.0531 13.1806 15.6414 12.9246 15.1709C12.8976 15.1212 12.8718 15.0708 12.8472 15.0199C12.8428 15.0108 12.8385 15.0016 12.8341 14.9925C12.8299 14.9833 12.8256 14.9742 12.8214 14.965C12.7984 14.9152 12.7767 14.8648 12.7561 14.8139C12.6727 14.6076 12.6089 14.3929 12.566 14.1728C12.5303 13.9894 12.509 13.8022 12.503 13.6131C12.5021 13.5829 12.5015 13.5526 12.5013 13.5222C12.5013 13.5153 12.5013 13.5083 12.5013 13.5014V13.1822V12.8394C12.5013 12.8394 12.5046 12.7849 12.5104 12.6887C12.4637 12.763 12.4137 12.8403 12.3601 12.921C12.3417 12.9487 12.3229 12.9769 12.3037 13.0054V13.1822V13.2162V13.365V13.5141V13.5222V13.6237C12.3037 13.6239 12.3037 13.6241 12.3037 13.6243C12.3037 13.8039 12.3179 13.9812 12.3454 14.1549C12.3472 14.1663 12.3491 14.1777 12.351 14.1891C12.3529 14.2003 12.3549 14.2115 12.3569 14.2226C12.3642 14.2635 12.3723 14.3041 12.3811 14.3445C12.4161 14.505 12.4627 14.6619 12.5202 14.8139C12.5395 14.8648 12.56 14.9152 12.5816 14.965C12.5856 14.9742 12.5897 14.9833 12.5938 14.9925C12.5978 15.0016 12.602 15.0108 12.6061 15.0199C12.6295 15.0709 12.6541 15.1212 12.6799 15.1709C12.8789 15.5532 13.1521 15.895 13.4878 16.1745C13.5697 16.2426 13.6554 16.307 13.7446 16.3673C13.7541 16.374 13.7633 16.3802 13.7726 16.3866C13.7762 16.3889 13.7798 16.3913 13.7833 16.3936C13.965 16.5131 14.153 16.6172 14.3456 16.706V16.706Z"
        fill="#DBE2D6" />
    <defs>
        <linearGradient id="paint0_linear_447_65" x1="16.2136" y1="11.3021" x2="16.1133"
            y2="25.9447" gradientUnits="userSpaceOnUse">
            <stop stop-color="#3F8CA2" />
            <stop offset="1" stop-color="#3F8CA2" />
        </linearGradient>
        <linearGradient id="paint1_linear_447_65" x1="16.2142" y1="11.3021" x2="16.1139"
            y2="25.9453" gradientUnits="userSpaceOnUse">
            <stop stop-color="#50E9A3" />
            <stop offset="1" stop-color="#50E9A3" />
        </linearGradient>
        <linearGradient id="paint2_linear_447_65" x1="16.2135" y1="11.3023" x2="16.1132"
            y2="25.9449" gradientUnits="userSpaceOnUse">
            <stop stop-color="#46A0B5" />
            <stop offset="1" stop-color="#46A0B5" />
        </linearGradient>
        <linearGradient id="paint3_linear_447_65" x1="16.2138" y1="11.3021" x2="16.1135"
            y2="25.9448" gradientUnits="userSpaceOnUse">
            <stop stop-color="#3B93B6" />
            <stop offset="1" stop-color="#3B93B6" />
        </linearGradient>
        <linearGradient id="paint4_linear_447_65" x1="16.2145" y1="11.3021" x2="16.1142"
            y2="25.9449" gradientUnits="userSpaceOnUse">
            <stop stop-color="#2073B9" />
            <stop offset="1" stop-color="#2073B9" />
        </linearGradient>
    </defs>
</svg>